<svg width="150" height="150" viewBox="0 0 150 150" fill="none" xmlns="http://www.w3.org/2000/svg">
<rect width="150" height="150" rx="75" fill="#FCDDCC"/>
<g clip-path="url(#clip0_1877_36935)">
<path d="M74.9841 87.75C84.1338 87.75 91.4156 78.4744 91.4156 67.0312C91.4156 55.5881 83.9983 46.3125 74.9841 46.3125C65.8343 46.3125 58.5525 55.5881 58.5525 67.0312C58.4091 78.4664 65.8359 87.75 74.9841 87.75ZM82.9528 94.125H67.0472C54.5363 94.125 44.4 106.018 44.4 120.681C44.4 123.629 46.4241 126 48.9262 126H101.074C103.576 126 105.6 123.629 105.6 120.681C105.6 106.018 95.4637 94.125 82.9528 94.125ZM105.6 55.875C112.641 55.875 118.35 48.739 118.35 39.9375C118.35 31.136 112.644 24 105.6 24C98.5588 24 92.85 31.136 92.85 39.9375C92.85 48.739 98.5556 55.875 105.6 55.875ZM53.3091 67.0312C53.3091 65.9457 53.4656 64.9136 53.5655 63.8617C51.8269 62.6684 49.9144 62.25 47.8903 62.25H38.0378C30.2858 62.25 24 70.5773 24 80.8371C24 82.8891 25.257 84.5625 26.8082 84.5625H58.6035C55.3491 79.8211 53.3091 73.7449 53.3091 67.0312ZM44.4 55.875C51.4412 55.875 57.15 48.739 57.15 39.9375C57.15 31.136 51.4444 24 44.4 24C37.3588 24 31.65 31.136 31.65 39.9375C31.65 48.739 37.3588 55.875 44.4 55.875ZM111.959 62.25H102.103C100.063 62.25 98.1381 62.855 96.3881 63.8916C96.4838 64.9395 96.6431 65.9555 96.6431 67.0312C96.6431 73.7469 94.6063 79.8231 91.3583 84.5625H123.185C124.741 84.5625 126 82.8891 126 80.8371C126 70.5773 119.721 62.25 111.959 62.25Z" fill="#CF0A0A"/>
</g>
<defs>
<clipPath id="clip0_1877_36935">
<rect width="102" height="102" fill="white" transform="translate(24 24)"/>
</clipPath>
</defs>
</svg>
