<?xml version="1.0" encoding="UTF-8" standalone="no" ?>
<!DOCTYPE svg PUBLIC "-//W3C//DTD SVG 1.1//EN" "http://www.w3.org/Graphics/SVG/1.1/DTD/svg11.dtd">
<svg xmlns="http://www.w3.org/2000/svg" xmlns:xlink="http://www.w3.org/1999/xlink" version="1.1" width="1080" height="1080" viewBox="0 0 1080 1080" xml:space="preserve">
<desc>Created with Fabric.js 5.2.4</desc>
<defs>
</defs>
<g transform="matrix(1 0 0 1 540 540)" id="4cd77a9f-ce7e-43e6-ac9d-d1a38eae5522"  >
<rect style="stroke: none; stroke-width: 1; stroke-dasharray: none; stroke-linecap: butt; stroke-dashoffset: 0; stroke-linejoin: miter; stroke-miterlimit: 4; fill: rgb(255,255,255); fill-rule: nonzero; opacity: 1; visibility: hidden;" vector-effect="non-scaling-stroke"  x="-540" y="-540" rx="0" ry="0" width="1080" height="1080" />
</g>
<g transform="matrix(1 0 0 1 540 540)" id="ea85adb2-65e9-47e8-9fad-8eb6389b8a70"  >
</g>
<g transform="matrix(2.36 0 0 2.36 540 540)" id="3f41ba74-f38f-4a14-98a9-71821638264a"  >
<path style="stroke: rgb(0,0,0); stroke-width: 0; stroke-dasharray: none; stroke-linecap: butt; stroke-dashoffset: 0; stroke-linejoin: miter; stroke-miterlimit: 4; fill: rgb(255,255,255); fill-rule: nonzero; opacity: 1;" vector-effect="non-scaling-stroke"  transform=" translate(-192.2, -255.96)" d="M 318.7 268.7 C 318.5 232 335.09999999999997 204.29999999999998 368.7 183.89999999999998 C 349.9 156.99999999999997 321.5 142.2 284 139.29999999999998 C 248.5 136.49999999999997 209.7 159.99999999999997 195.5 159.99999999999997 C 180.5 159.99999999999997 146.1 140.29999999999998 119.1 140.29999999999998 C 63.3 141.2 4 184.8 4 273.5 Q 4 312.8 18.4 354.7 C 31.2 391.4 77.4 481.4 125.6 479.9 C 150.79999999999998 479.29999999999995 168.6 462 201.39999999999998 462 C 233.2 462 249.7 479.9 277.79999999999995 479.9 C 326.4 479.2 368.19999999999993 397.4 380.4 360.59999999999997 C 315.2 329.9 318.7 270.59999999999997 318.7 268.69999999999993 z M 262.09999999999997 104.5 C 289.4 72.1 286.9 42.6 286.09999999999997 32 C 261.99999999999994 33.4 234.09999999999997 48.4 218.19999999999996 66.9 C 200.69999999999996 86.7 190.39999999999995 111.2 192.59999999999997 138.8 C 218.69999999999996 140.8 242.49999999999997 127.4 262.09999999999997 104.50000000000001 z" stroke-linecap="round" />
</g>
</svg>