<svg width="110" height="110" viewBox="0 0 110 110" fill="none" xmlns="http://www.w3.org/2000/svg">
<path d="M91.3636 14.0909H18.6364C11.1052 14.0909 5 20.1962 5 27.7273V91.3637C5 98.8948 11.1052 105 18.6364 105H91.3636C98.8948 105 105 98.8948 105 91.3637V27.7273C105 20.1962 98.8948 14.0909 91.3636 14.0909Z" stroke="black" stroke-width="10" stroke-linecap="round" stroke-linejoin="round"/>
<path d="M5 41.3636H105" stroke="black" stroke-width="10" stroke-linecap="round" stroke-linejoin="round"/>
<path d="M55 23.1818V5" stroke="black" stroke-width="10" stroke-linecap="round" stroke-linejoin="round"/>
<path d="M27.7273 23.1818V5" stroke="black" stroke-width="10" stroke-linecap="round" stroke-linejoin="round"/>
<path d="M82.2727 23.1818V5" stroke="black" stroke-width="10" stroke-linecap="round" stroke-linejoin="round"/>
<path d="M23.1818 64.0909H32.2727" stroke="black" stroke-width="10" stroke-linecap="round" stroke-linejoin="round"/>
<path d="M50.4545 64.0909H59.5454" stroke="black" stroke-width="10" stroke-linecap="round" stroke-linejoin="round"/>
<path d="M77.7273 64.0909H86.8182" stroke="black" stroke-width="10" stroke-linecap="round" stroke-linejoin="round"/>
<path d="M23.1818 82.2727H32.2727" stroke="black" stroke-width="10" stroke-linecap="round" stroke-linejoin="round"/>
<path d="M50.4545 82.2727H59.5454" stroke="black" stroke-width="10" stroke-linecap="round" stroke-linejoin="round"/>
<path d="M77.7273 82.2727H86.8182" stroke="black" stroke-width="10" stroke-linecap="round" stroke-linejoin="round"/>
</svg>
