<svg width="100" height="100" viewBox="0 0 100 100" fill="none" xmlns="http://www.w3.org/2000/svg">
<path d="M70 50L95.7143 24.2857C101.429 18.5714 101.429 10 95.7143 4.28571C90 -1.42857 81.4286 -1.42857 75.7143 4.28571L50 30L24.2857 4.28571C18.5714 -1.42857 10 -1.42857 4.28571 4.28571C-1.42857 10 -1.42857 18.5714 4.28571 24.2857L30 50L4.28571 75.7143C-1.42857 81.4286 -1.42857 90 4.28571 95.7143C7.14286 98.5714 10.7143 100 14.2857 100C17.8571 100 21.4286 98.5714 24.2857 95.7143L50 70L75.7143 95.7143C78.5714 98.5714 82.1429 100 85.7143 100C89.2857 100 92.8571 98.5714 95.7143 95.7143C101.429 90 101.429 81.4286 95.7143 75.7143L70 50Z" fill="black"/>
</svg>
