<svg width="100" height="100" viewBox="0 0 100 100" fill="none" xmlns="http://www.w3.org/2000/svg">
<path d="M94.9725 50.0145C93.6468 50.0145 92.3754 50.5411 91.438 51.4785C90.5005 52.4159 89.9739 53.6873 89.9739 55.013V85.0043C89.9739 86.33 89.4473 87.6015 88.5099 88.5389C87.5725 89.4763 86.3011 90.0029 84.9754 90.0029H14.9957C13.67 90.0029 12.3986 89.4763 11.4611 88.5389C10.5237 87.6015 9.9971 86.33 9.9971 85.0043V15.0246C9.9971 13.6989 10.5237 12.4275 11.4611 11.4901C12.3986 10.5527 13.67 10.0261 14.9957 10.0261H44.987C46.3127 10.0261 47.5841 9.49945 48.5215 8.56204C49.4589 7.62463 49.9855 6.35323 49.9855 5.02753C49.9855 3.70184 49.4589 2.43043 48.5215 1.49302C47.5841 0.555615 46.3127 0.0289833 44.987 0.0289833H14.9957C11.0186 0.0289833 7.20436 1.60888 4.39213 4.42111C1.5799 7.23334 0 11.0475 0 15.0246V85.0043C0 88.9814 1.5799 92.7956 4.39213 95.6079C7.20436 98.4201 11.0186 100 14.9957 100H84.9754C88.9525 100 92.7667 98.4201 95.5789 95.6079C98.3911 92.7956 99.971 88.9814 99.971 85.0043V55.013C99.971 53.6873 99.4444 52.4159 98.507 51.4785C97.5696 50.5411 96.2982 50.0145 94.9725 50.0145ZM19.9942 53.8134V75.0072C19.9942 76.3329 20.5208 77.6043 21.4582 78.5418C22.3957 79.4792 23.6671 80.0058 24.9928 80.0058H46.1866C46.8445 80.0096 47.4966 79.8835 48.1056 79.6348C48.7146 79.386 49.2685 79.0195 49.7356 78.5562L84.3256 43.9163L98.5214 30.0203C98.9899 29.5556 99.3618 29.0028 99.6156 28.3936C99.8694 27.7845 100 27.1312 100 26.4713C100 25.8114 99.8694 25.1581 99.6156 24.549C99.3618 23.9399 98.9899 23.387 98.5214 22.9223L77.3276 1.47856C76.8629 1.01006 76.3101 0.638193 75.7009 0.384423C75.0918 0.130653 74.4385 0 73.7786 0C73.1187 0 72.4654 0.130653 71.8563 0.384423C71.2472 0.638193 70.6943 1.01006 70.2296 1.47856L56.1337 15.6245L21.4438 50.2644C20.9805 50.7315 20.614 51.2854 20.3652 51.8944C20.1165 52.5034 19.9904 53.1555 19.9942 53.8134V53.8134ZM73.7786 12.0755L87.9245 26.2214L80.8266 33.3193L66.6807 19.1734L73.7786 12.0755ZM29.9913 55.8628L59.6327 26.2214L73.7786 40.3673L44.1372 70.0087H29.9913V55.8628Z" fill="white"/>
</svg>
