<?xml version="1.0" encoding="UTF-8" standalone="no" ?>
<!DOCTYPE svg PUBLIC "-//W3C//DTD SVG 1.1//EN" "http://www.w3.org/Graphics/SVG/1.1/DTD/svg11.dtd">
<svg xmlns="http://www.w3.org/2000/svg" xmlns:xlink="http://www.w3.org/1999/xlink" version="1.1" width="1080" height="1080" viewBox="0 0 1080 1080" xml:space="preserve">
<desc>Created with Fabric.js 5.2.4</desc>
<defs>
</defs>
<g transform="matrix(1 0 0 1 540 540)" id="c1025e70-fe2b-47fc-8d8d-2de136501b13"  >
<rect style="stroke: none; stroke-width: 1; stroke-dasharray: none; stroke-linecap: butt; stroke-dashoffset: 0; stroke-linejoin: miter; stroke-miterlimit: 4; fill: rgb(255,255,255); fill-rule: nonzero; opacity: 1; visibility: hidden;" vector-effect="non-scaling-stroke"  x="-540" y="-540" rx="0" ry="0" width="1080" height="1080" />
</g>
<g transform="matrix(1 0 0 1 540 540)" id="8c4e24e1-ddda-4c41-80d6-dee6d8e2eeb2"  >
</g>
<g transform="matrix(2.06 0 0 2.06 540 540)" id="80dea2ff-e6b2-4f82-973c-c68f4a19c788"  >
<path style="stroke: rgb(0,0,0); stroke-width: 0; stroke-dasharray: none; stroke-linecap: butt; stroke-dashoffset: 0; stroke-linejoin: miter; stroke-miterlimit: 4; fill: rgb(207,10,10); fill-rule: nonzero; opacity: 1;" vector-effect="non-scaling-stroke"  transform=" translate(-256.03, -255.95)" d="M 325.3 234.3 L 104.6 13 L 385.4 174.2 L 325.29999999999995 234.29999999999998 z M 47 0 C 34 6.8 25.3 19.2 25.3 35.3 L 25.3 476.6 C 25.3 492.70000000000005 34 505.1 47 511.90000000000003 L 303.6 255.90000000000003 L 47 0 z M 472.2 225.6 L 413.3 191.5 L 347.6 256 L 413.3 320.5 L 473.40000000000003 286.4 C 491.40000000000003 272.09999999999997 491.40000000000003 239.89999999999998 472.20000000000005 225.59999999999997 z M 104.6 499 L 385.4 337.8 L 325.29999999999995 277.7 L 104.6 499 z" stroke-linecap="round" />
</g>
<g transform="matrix(NaN NaN NaN NaN 0 0)"  >
<g style=""   >
</g>
</g>
</svg>