<svg width="150" height="150" viewBox="0 0 150 150" fill="none" xmlns="http://www.w3.org/2000/svg">
<rect width="150" height="150" rx="75" fill="#FCDDCC"/>
<path d="M96.3531 97.6522L99.6027 94.7384C98.5385 94.7244 97.6275 93.8521 97.4317 92.6525C97.2573 91.5846 97.0957 90.5539 96.9442 89.5525L92.6172 93.4321L95.5993 100.914L96.3531 97.6522Z" fill="#CF0A0A"/>
<path d="M97.9226 92.5479C98.0785 93.5026 98.8083 94.1691 99.6286 94.1691C99.7342 94.1691 99.8416 94.1582 99.9491 94.1352C100.892 93.9341 101.514 92.8975 101.338 91.8199C100.03 83.81 99.5682 78.832 99.4547 75.7802L99.9552 75.8078C100.071 78.8364 100.533 83.7737 101.829 91.7153C101.887 92.0673 101.878 92.4212 101.809 92.76L107.505 87.6532C107.99 87.2179 108.303 86.6247 108.432 85.9876C108.437 85.986 108.442 85.9847 108.446 85.9832L117.022 107.499C117.459 108.595 118.405 109.243 119.395 109.243C119.756 109.243 120.123 109.157 120.473 108.975C121.783 108.293 122.362 106.527 121.765 105.031L106.997 67.9781C106.951 67.8612 106.896 67.7513 106.839 67.6448C107.008 66.1666 107.105 64.0396 106.784 61.5318C106.23 57.1978 104.278 50.8215 98.1263 45.0568C97.3844 44.3614 96.2899 44.4852 95.6812 45.3326C95.0727 46.1802 95.1809 47.431 95.9227 48.1263C100.552 52.465 102.463 57.1045 103.171 60.8782C103.891 61.7856 104.383 62.9394 104.526 64.23C104.899 67.5961 102.806 70.6817 99.8599 71.1081C99.6333 71.1408 99.4034 71.1575 99.1765 71.1575C98.1311 71.1575 97.1486 70.8083 96.3148 70.2062C96.1046 71.0217 95.9891 72.1015 95.9577 73.5024C95.9434 74.1396 95.9495 74.8397 95.9717 75.5887C96.0918 79.6481 96.7443 85.3325 97.9226 92.5479Z" fill="#CF0A0A"/>
<path d="M101.049 70.1584C103.543 68.9809 104.73 65.7163 103.699 62.8668C102.668 60.0172 99.8109 58.6618 97.3168 59.8393C94.8227 61.0168 93.6363 64.2813 94.6669 67.1309C95.6975 69.9804 98.5549 71.3359 101.049 70.1584Z" fill="#CF0A0A"/>
<path d="M29.9414 109.144C30.1643 109.211 30.3882 109.243 30.6084 109.243C31.7627 109.243 32.8179 108.36 33.1264 107.025L35.2922 97.6522L38.5418 94.7384C37.4776 94.7244 36.5666 93.8521 36.3708 92.6525C36.1964 91.5846 36.0348 90.5539 35.8833 89.5525L31.3867 93.5842C30.9405 93.9842 30.6207 94.5398 30.4758 95.1664L28.0869 105.505C27.7196 107.095 28.5499 108.724 29.9414 109.144Z" fill="#CF0A0A"/>
<path d="M36.8617 92.5479C37.0176 93.5026 37.7473 94.1691 38.5677 94.1691C38.6733 94.1691 38.7806 94.1582 38.8881 94.1352C39.8315 93.9341 40.4535 92.8975 40.2774 91.8199C38.9695 83.81 38.5072 78.832 38.3937 75.7802L38.8942 75.8078C39.0097 78.8364 39.4716 83.7737 40.7684 91.7153C40.8259 92.0673 40.817 92.4212 40.7483 92.76L46.4438 87.6532C46.9294 87.2179 47.2416 86.6247 47.3714 85.9876C47.3761 85.986 47.3807 85.9847 47.3854 85.9832L53.9931 102.562L54.3385 101.067C54.6349 99.7843 55.3014 98.6267 56.2149 97.8076L57.4012 96.744L45.9363 67.9781C45.8897 67.8612 45.8354 67.7513 45.7779 67.6448C45.9468 66.1666 46.0443 64.0396 45.7233 61.5318C45.1687 57.1978 43.2165 50.8215 37.0653 45.0568C36.3234 44.3614 35.2288 44.4852 34.6201 45.3326C34.0117 46.1802 34.1198 47.431 34.8617 48.1263C39.4914 52.465 41.4025 57.1045 42.1102 60.8782C42.8301 61.7856 43.3222 62.9394 43.4654 64.23C43.8384 67.5961 41.7452 70.6816 38.7989 71.1081C38.5724 71.1408 38.3425 71.1575 38.1156 71.1575C37.0702 71.1575 36.0877 70.8083 35.254 70.2062C35.0437 71.0216 34.9282 72.1015 34.8968 73.5023C34.8825 74.1395 34.8886 74.8397 34.9108 75.5887C35.0308 79.6481 35.6834 85.3325 36.8617 92.5479Z" fill="#CF0A0A"/>
<path d="M42.1682 68.1343C43.6819 65.5817 43.0978 62.1104 40.8635 60.381C38.6293 58.6516 35.591 59.319 34.0773 61.8716C32.5636 64.4242 33.1478 67.8955 35.382 69.6249C37.6162 71.3543 40.6545 70.6869 42.1682 68.1343Z" fill="#CF0A0A"/>
<path d="M74.7563 56.5382C75.2988 61.4335 72.2546 65.9208 67.9699 66.541C67.6405 66.5885 67.3061 66.6128 66.9761 66.6128C65.4558 66.6128 64.027 66.105 62.8144 65.2293C62.5086 66.4152 62.3407 67.9856 62.295 70.0228C62.1614 75.9721 63.1228 85.2913 65.1526 97.7205C65.3793 99.1089 66.4406 100.078 67.6336 100.078C67.7872 100.078 67.9433 100.062 68.0997 100.029C69.4716 99.7365 70.3762 98.229 70.1202 96.6619C68.218 85.0131 67.5458 77.7738 67.3807 73.3356L68.1085 73.3757C68.2765 77.7801 68.9483 84.9604 70.8342 96.5097C70.9179 97.0216 70.9049 97.5364 70.805 98.029L79.0879 90.6023C79.794 89.9693 80.2482 89.1067 80.437 88.1799C80.4437 88.1778 80.4504 88.1757 80.4572 88.1735L92.928 119.463C93.5634 121.058 94.9399 122 96.3793 122C96.9049 122 97.4385 121.875 97.9477 121.61C99.8529 120.618 100.694 118.051 99.8263 115.874L78.3498 61.9891C78.2824 61.8201 78.2042 61.6613 78.1209 61.5073C78.3663 59.3577 78.5065 56.2581 78.0401 52.6143C77.2336 46.3114 74.3945 37.0384 65.4488 28.6549C64.3699 27.6436 62.7778 27.8236 61.8929 29.0561C61.008 30.2887 61.1653 32.1077 62.2442 33.1189C68.9772 39.4288 71.7561 46.1756 72.7851 51.6635C73.8322 52.9831 74.548 54.6612 74.7563 56.5382Z" fill="#CF0A0A"/>
<path d="M52.3913 116.563C51.8571 118.875 53.0646 121.244 55.0883 121.855C55.4124 121.953 55.7381 121.999 56.0583 121.999C57.737 122 59.2715 120.716 59.7202 118.774L62.8699 105.143L67.5958 100.906C66.048 100.885 64.7233 99.6167 64.4385 97.8722C64.1849 96.3192 63.9499 94.8202 63.7295 93.3639L57.1902 99.2271C56.5412 99.8089 56.0761 100.617 55.8655 101.528L52.3913 116.563Z" fill="#CF0A0A"/>
<path d="M70.6615 64.6075C74.019 62.2862 75.0938 57.2947 73.062 53.4587C71.0302 49.6226 66.6613 48.3948 63.3037 50.7161C59.9462 53.0374 58.8715 58.029 60.9032 61.865C62.935 65.701 67.304 66.9289 70.6615 64.6075Z" fill="#CF0A0A"/>
</svg>
