<svg width="100" height="138" viewBox="0 0 100 138" fill="none" xmlns="http://www.w3.org/2000/svg">
<path d="M70.8333 51.8843C70.8333 63.8285 61.5104 73.5027 50 73.5027C38.4896 73.5027 29.1667 63.8285 29.1667 51.8843C29.1667 39.9401 38.4896 30.2658 50 30.2658C61.5104 30.2658 70.8333 39.9401 70.8333 51.8843ZM50 43.2369C45.3906 43.2369 41.6667 47.1012 41.6667 51.8843C41.6667 56.6673 45.3906 60.5316 50 60.5316C54.6094 60.5316 58.3333 56.6673 58.3333 51.8843C58.3333 47.1012 54.6094 43.2369 50 43.2369ZM100 51.8843C100 75.5024 69.5312 117.55 56.1719 134.899C52.9687 139.034 47.0312 139.034 43.8281 134.899C30.2344 117.55 0 75.5024 0 51.8843C0 23.229 22.3854 0 50 0C77.6042 0 100 23.229 100 51.8843ZM50 12.9711C29.2969 12.9711 12.5 30.4009 12.5 51.8843C12.5 55.2351 13.6693 60.4236 16.4844 67.3415C19.2135 74.0432 23.0885 81.4475 27.5521 88.9329C34.9479 101.418 43.5417 113.254 50 122.063C56.4583 113.254 65.0521 101.418 72.4479 88.9329C76.901 81.4475 80.7813 74.0432 83.5156 67.3415C86.3281 60.4236 87.5 55.2351 87.5 51.8843C87.5 30.4009 70.7031 12.9711 50 12.9711Z" fill="#1A1A1A"/>
</svg>
