<svg width="100" height="100" viewBox="0 0 100 100" fill="none" xmlns="http://www.w3.org/2000/svg">
<path d="M32.8125 89.2857H18.75C13.5938 89.2857 9.375 84.4643 9.375 78.5714V21.4286C9.375 15.5357 13.5938 10.7143 18.75 10.7143H32.8125C35.4102 10.7143 37.5 8.31473 37.5 5.35714C37.5 2.39732 35.4102 0 32.8125 0H18.75C8.39453 0 0 9.59375 0 21.4286V78.5714C0 90.4062 8.39453 100 18.75 100H32.8125C35.4102 100 37.5 97.6116 37.5 94.6429C37.5 91.6741 35.4102 89.2857 32.8125 89.2857ZM98.418 46.1161L68.6523 16.1607C66.7297 14.2076 63.9648 13.7321 61.6035 14.94C59.2969 16.1384 57.8125 18.7277 57.8125 21.5848V33.9308H34.375C30.0664 33.9308 26.5625 37.9353 26.5625 42.8594V57.1451C26.5625 62.0692 30.0664 66.0737 34.375 66.0737H57.8125V78.4196C57.8125 81.2656 59.3018 83.8683 61.6035 85.0536C62.4703 85.5 63.3918 85.7163 64.3066 85.7163C65.8813 85.7163 67.4375 85.0676 68.6523 83.8328L98.418 54.123C99.4336 53.1027 100 51.6518 100 50.1116C100 48.5714 99.4336 47.1205 98.418 46.1161ZM67.1875 70.9821V55.1563H35.9375V44.442H67.1875V28.817L88.2422 49.9196L67.1875 70.9821Z" fill="white"/>
</svg>
