<svg width="150" height="150" viewBox="0 0 150 150" fill="none" xmlns="http://www.w3.org/2000/svg">
<g clip-path="url(#clip0_1877_36929)">
<path d="M75 137.5C81.875 137.5 87.5 131.875 87.5 125H62.5C62.5 131.875 68.125 137.5 75 137.5ZM112.5 100V68.75C112.5 49.5625 102.313 33.5 84.375 29.25V25C84.375 19.8125 80.1875 15.625 75 15.625C69.8125 15.625 65.625 19.8125 65.625 25V29.25C47.75 33.5 37.5 49.5 37.5 68.75V100L25 112.5V118.75H125V112.5L112.5 100ZM100 106.25H50V68.75C50 53.25 59.4375 40.625 75 40.625C90.5625 40.625 100 53.25 100 68.75V106.25Z" fill="white"/>
</g>
<defs>
<clipPath id="clip0_1877_36929">
<rect width="150" height="150" fill="white"/>
</clipPath>
</defs>
</svg>
