<svg width="200" height="200" viewBox="0 0 200 200" fill="none" xmlns="http://www.w3.org/2000/svg">
<path d="M0 50C0 36.1914 11.1914 25 25 25H175C188.789 25 200 36.1914 200 50V150C200 163.789 188.789 175 175 175H25C11.1914 175 0 163.789 0 150V50ZM18.75 50V58.6328L86.1328 113.945C94.1797 120.586 105.82 120.586 113.867 113.945L181.25 58.6328V49.6484C181.25 46.5625 178.438 43.3984 175 43.3984H25C21.5469 43.3984 18.75 46.5625 18.75 49.6484V50ZM18.75 82.8906V150C18.75 153.438 21.5469 156.25 25 156.25H175C178.438 156.25 181.25 153.438 181.25 150V82.8906L125.781 128.437C110.781 140.742 89.2188 140.742 73.8672 128.437L18.75 82.8906Z" fill="white"/>
</svg>
