<svg width="100" height="100" viewBox="0 0 100 100" fill="none" xmlns="http://www.w3.org/2000/svg">
<path d="M89.0625 0H29.6875C23.6523 0 18.75 5.60938 18.75 12.5V83.9286C18.75 86.8795 16.6465 89.2857 14.0625 89.2857C11.4785 89.2857 9.375 86.875 9.375 83.9286V17.8571C9.375 14.8996 7.27539 12.5 4.6875 12.5C2.09961 12.5 0 14.8996 0 17.8571V83.9286C0 92.7902 6.30859 100 14.0625 100H82.8125C92.291 100 100 91.1897 100 80.3571V12.5C100 5.60938 95.0977 0 89.0625 0ZM90.625 80.3571C90.625 85.2812 87.1211 89.2857 82.8125 89.2857H27.3242C27.832 87.6116 28.125 85.8036 28.125 83.9286V12.5C28.125 11.5165 28.827 10.7143 29.6875 10.7143H89.0625C89.923 10.7143 90.625 11.5165 90.625 12.5V80.3571ZM51.5625 53.5714H39.0625C36.4844 53.5714 34.375 55.9821 34.375 58.9286C34.375 61.875 36.4844 64.2857 39.0625 64.2857H51.5625C54.1602 64.2857 56.25 61.8973 56.25 58.9286C56.25 55.9598 54.1602 53.5714 51.5625 53.5714ZM79.6875 53.5714H67.1875C64.6094 53.5714 62.5 55.9821 62.5 58.9286C62.5 61.875 64.6094 64.2857 67.1875 64.2857H79.6875C82.2754 64.2857 84.375 61.8862 84.375 58.9286C84.375 55.971 82.2852 53.5714 79.6875 53.5714ZM51.5625 71.4286H39.0625C36.4746 71.4286 34.375 73.8281 34.375 76.7857C34.375 79.7433 36.4746 82.1429 39.0625 82.1429H51.5625C54.1504 82.1429 56.25 79.7433 56.25 76.7857C56.25 73.8281 54.1602 71.4286 51.5625 71.4286ZM79.6875 71.4286H67.1875C64.6094 71.4286 62.5 73.8393 62.5 76.7857C62.5 79.7321 64.5996 82.1429 67.1875 82.1429H79.6875C82.2754 82.1429 84.375 79.7433 84.375 76.7857C84.375 73.8281 82.2852 71.4286 79.6875 71.4286ZM78.125 17.8571H40.625C37.1738 17.8571 34.375 21.0558 34.375 25V39.2857C34.375 43.2299 37.1738 46.4286 40.625 46.4286H78.125C81.5762 46.4286 84.375 43.2299 84.375 39.2857V25C84.375 21.0491 81.582 17.8571 78.125 17.8571Z" fill="white"/>
</svg>
