<svg width="100" height="100" viewBox="0 0 100 100" fill="none" xmlns="http://www.w3.org/2000/svg">
<g clip-path="url(#clip0_1591_36295)">
<path d="M72.7159 74.0986L76.173 70.9989C75.0407 70.9839 74.0717 70.056 73.8633 68.7799C73.6778 67.6438 73.5059 66.5473 73.3447 65.4819L68.7415 69.6092L71.914 77.569L72.7159 74.0986Z" fill="white"/>
<path d="M74.3857 68.6685C74.5516 69.6841 75.3279 70.3932 76.2006 70.3932C76.313 70.3932 76.4271 70.3816 76.5415 70.3571C77.5451 70.1432 78.2068 69.0404 78.0195 67.8941C76.6281 59.3729 76.1363 54.0772 76.0155 50.8306L76.548 50.8599C76.6709 54.0818 77.1622 59.3343 78.5419 67.7828C78.603 68.1572 78.5936 68.5338 78.5205 68.8941L84.5795 63.4615C85.0961 62.9983 85.4283 62.3673 85.5663 61.6895C85.5714 61.6878 85.5762 61.6864 85.5812 61.6848L94.7038 84.5737C95.1686 85.74 96.1755 86.4293 97.2285 86.4293C97.6129 86.4293 98.0032 86.3375 98.3757 86.1437C99.7694 85.4187 100.385 83.5404 99.75 81.9483L84.0396 42.5304C83.99 42.4061 83.9324 42.2892 83.8711 42.1759C84.0508 40.6033 84.1545 38.3405 83.8131 35.6727C83.2231 31.062 81.1463 24.2787 74.6024 18.1461C73.8132 17.4063 72.6487 17.538 72.0012 18.4395C71.3539 19.3412 71.4689 20.6718 72.2582 21.4115C77.1833 26.0272 79.2164 30.9628 79.9692 34.9774C80.735 35.9427 81.2585 37.1702 81.4109 38.5431C81.8078 42.1241 79.5809 45.4066 76.4466 45.8603C76.2056 45.8951 75.961 45.9128 75.7196 45.9128C74.6075 45.9128 73.5623 45.5413 72.6753 44.9008C72.4516 45.7683 72.3288 46.9171 72.2953 48.4073C72.2801 49.0852 72.2867 49.8301 72.3102 50.6269C72.4381 54.9454 73.1322 60.9926 74.3857 68.6685Z" fill="white"/>
<path d="M77.7115 44.8499C80.3648 43.5973 81.627 40.1243 80.5305 37.0929C79.4341 34.0615 76.3944 32.6195 73.7411 33.8721C71.0878 35.1248 69.8256 38.5977 70.9221 41.6292C72.0185 44.6606 75.0582 46.1026 77.7115 44.8499Z" fill="white"/>
<path d="M2.06529 86.3236C2.3024 86.3951 2.54069 86.4293 2.77487 86.4293C4.00292 86.4294 5.12539 85.49 5.45366 84.0695L7.75768 74.0986L11.2147 70.9989C10.0825 70.9839 9.11343 70.056 8.90509 68.7799C8.71955 67.6438 8.54766 66.5473 8.38648 65.4819L3.60292 69.771C3.1282 70.1965 2.78797 70.7876 2.63386 71.4542L0.0924902 82.4525C-0.298267 84.1438 0.585019 85.877 2.06529 86.3236Z" fill="white"/>
<path d="M9.42726 68.6685C9.59311 69.6841 10.3694 70.3932 11.2421 70.3932C11.3545 70.3932 11.4687 70.3816 11.583 70.3571C12.5866 70.1432 13.2483 69.0404 13.0611 67.8941C11.6696 59.3729 11.1779 54.0772 11.0571 50.8306L11.5895 50.8599C11.7124 54.0818 12.2038 59.3343 13.5834 67.7828C13.6445 68.1572 13.6351 68.5338 13.562 68.8941L19.621 63.4615C20.1376 62.9983 20.4698 62.3673 20.6078 61.6895C20.6129 61.6878 20.6177 61.6864 20.6227 61.6848L27.6521 79.322L28.0196 77.7318C28.3349 76.3669 29.0439 75.1354 30.0158 74.264L31.2778 73.1325L19.0811 42.5304C19.0315 42.4061 18.9738 42.2891 18.9126 42.1759C19.0923 40.6033 19.196 38.3405 18.8545 35.6727C18.2646 31.062 16.1877 24.2787 9.64384 18.1461C8.85463 17.4063 7.69019 17.538 7.04267 18.4395C6.39535 19.3412 6.51043 20.6718 7.29963 21.4115C12.2249 26.0271 14.258 30.9628 15.0108 34.9774C15.7766 35.9427 16.3001 37.1702 16.4525 38.5431C16.8494 42.1241 14.6225 45.4066 11.4882 45.8602C11.2472 45.895 11.0027 45.9128 10.7612 45.9128C9.64911 45.9128 8.60392 45.5413 7.71693 44.9007C7.49323 45.7682 7.37039 46.917 7.33696 48.4073C7.32174 49.0852 7.32829 49.83 7.35188 50.6268C7.47956 54.9454 8.17375 60.9926 9.42726 68.6685Z" fill="white"/>
<path d="M15.0726 42.6967C16.6829 39.9811 16.0615 36.2883 13.6846 34.4485C11.3078 32.6087 8.07558 33.3186 6.46527 36.0342C4.85497 38.7498 5.47637 42.4426 7.85321 44.2824C10.2301 46.1222 13.4623 45.4122 15.0726 42.6967Z" fill="white"/>
<path d="M49.7406 30.3604C50.3177 35.5682 47.0792 40.3419 42.521 41.0016C42.1706 41.0522 41.8149 41.0781 41.4638 41.0781C39.8465 41.0781 38.3264 40.5378 37.0365 39.6063C36.7112 40.8679 36.5326 42.5385 36.4839 44.7058C36.3418 51.0348 37.3646 60.9488 39.5239 74.1713C39.7651 75.6484 40.8941 76.6796 42.1633 76.6796C42.3267 76.6796 42.4927 76.6628 42.6591 76.6272C44.1186 76.316 45.0809 74.7123 44.8086 73.0452C42.785 60.6529 42.0699 52.9514 41.8942 48.23L42.6685 48.2726C42.8472 52.9582 43.5619 60.5968 45.5682 72.8833C45.6572 73.4279 45.6434 73.9755 45.5371 74.4995L54.3487 66.5988C55.0999 65.9254 55.583 65.0077 55.7839 64.0218C55.7911 64.0195 55.7981 64.0173 55.8054 64.015L69.0722 97.3021C69.7481 98.9982 71.2125 100.001 72.7438 100.001C73.3029 100.001 73.8706 99.8671 74.4123 99.5853C76.439 98.5309 77.3338 95.7994 76.4108 93.484L53.5635 36.1592C53.4918 35.9794 53.4086 35.8105 53.32 35.6467C53.581 33.3599 53.7301 30.0624 53.234 26.186C52.376 19.4808 49.3557 9.61597 39.839 0.697315C38.6913 -0.378563 36.9975 -0.187011 36.0562 1.1241C35.1148 2.43541 35.2821 4.37051 36.4299 5.44624C43.5926 12.1589 46.5489 19.3363 47.6436 25.1745C48.7575 26.5784 49.519 28.3636 49.7406 30.3604Z" fill="white"/>
<path d="M25.9482 94.2166C25.3799 96.6764 26.6644 99.1968 28.8172 99.8463C29.1621 99.9503 29.5086 100 29.8492 100C31.6351 100 33.2675 98.6341 33.7449 96.5682L37.0956 82.0677L42.1231 77.5599C40.4766 77.5381 39.0673 76.1886 38.7643 74.3327C38.4945 72.6805 38.2445 71.0859 38.0101 69.5366L31.0533 75.7741C30.363 76.393 29.8682 77.2526 29.6441 78.222L25.9482 94.2166Z" fill="white"/>
<path d="M45.3846 38.9447C48.9564 36.4752 50.0997 31.1651 47.9383 27.0842C45.7768 23.0034 41.129 21.6971 37.5572 24.1666C33.9853 26.6361 32.842 31.9463 35.0035 36.0271C37.1649 40.108 41.8127 41.4142 45.3846 38.9447Z" fill="white"/>
</g>
<defs>
<clipPath id="clip0_1591_36295">
<rect width="100" height="100" fill="white"/>
</clipPath>
</defs>
</svg>
