<svg width="100" height="100" viewBox="0 0 100 100" fill="none" xmlns="http://www.w3.org/2000/svg">
<path fill-rule="evenodd" clip-rule="evenodd" d="M38.3 50C45.827 50 51.95 40.58 51.95 29C51.95 17.42 45.827 8 38.3 8C30.773 8 24.65 17.42 24.65 29C24.65 40.58 30.773 50 38.3 50ZM38.3 20C41.537 20 44.15 24.02 44.15 29C44.15 33.98 41.537 38 38.3 38C35.063 38 32.45 33.98 32.45 29C32.45 24.02 35.063 20 38.3 20ZM38.3 60.5C29.174 60.5 11 67.52 11 81.5V86C11 89.3 12.755 92 14.9 92H61.7C63.845 92 65.6 89.3 65.6 86V81.5C65.6 67.52 47.426 60.5 38.3 60.5ZM20.126 80C23.402 76.52 31.319 72.5 38.3 72.5C45.281 72.5 53.198 76.52 56.474 80H20.126ZM65.756 60.86C70.28 65.9 73.4 72.62 73.4 81.5V92H85.1C87.245 92 89 89.3 89 86V81.5C89 69.38 75.35 62.48 65.756 60.86ZM61.7 50C69.227 50 75.35 40.58 75.35 29C75.35 17.42 69.227 8 61.7 8C59.594 8 57.644 8.78 55.85 10.1C58.307 15.44 59.75 21.98 59.75 29C59.75 36.02 58.307 42.56 55.85 47.9C57.644 49.22 59.594 50 61.7 50Z" fill="white"/>
</svg>
