<svg width="100" height="100" viewBox="0 0 100 100" fill="none" xmlns="http://www.w3.org/2000/svg">
<path d="M33.3333 75C28.75 75 25.0417 78.75 25.0417 83.3334C25.0417 87.9167 28.75 91.6667 33.3333 91.6667C37.9167 91.6667 41.6667 87.9167 41.6667 83.3334C41.6667 78.75 37.9167 75 33.3333 75ZM8.33334 8.33337V16.6667H16.6667L31.6667 48.2917L26.0417 58.5C25.375 59.6667 25 61.0417 25 62.5C25 67.0834 28.75 70.8334 33.3333 70.8334H83.3333V62.5H35.0833C34.5 62.5 34.0417 62.0417 34.0417 61.4584L34.1667 60.9584L37.9167 54.1667H68.9583C72.0833 54.1667 74.8333 52.4584 76.25 49.875L91.1667 22.8334C91.5 22.25 91.6667 21.5417 91.6667 20.8334C91.6667 18.5417 89.7917 16.6667 87.5 16.6667H25.875L21.9583 8.33337H8.33334ZM75 75C70.4167 75 66.7083 78.75 66.7083 83.3334C66.7083 87.9167 70.4167 91.6667 75 91.6667C79.5833 91.6667 83.3333 87.9167 83.3333 83.3334C83.3333 78.75 79.5833 75 75 75Z" fill="white"/>
</svg>
