<svg width="100" height="100" viewBox="0 0 100 100" fill="none" xmlns="http://www.w3.org/2000/svg">
<path d="M57.2857 57.4062H42.7143C27.9607 57.4062 16 69.5648 16 84.5625C16 87.2889 18.1751 89.5 20.8571 89.5H79.1429C81.8249 89.5 84 87.2889 84 84.5625C84 69.5648 72.0393 57.4062 57.2857 57.4062ZM23.436 82.0938C24.6351 72.3576 32.8179 64.8125 42.7143 64.8125H57.2857C67.1761 64.8125 75.3634 72.3653 76.5625 82.0938H23.436ZM50 50C60.7297 50 69.4286 41.1572 69.4286 30.25C69.4286 19.3428 60.7297 10.5 50 10.5C39.2703 10.5 30.5714 19.3428 30.5714 30.25C30.5714 41.1588 39.2688 50 50 50ZM50 17.9062C56.6953 17.9062 62.1429 23.444 62.1429 30.25C62.1429 37.056 56.6953 42.5938 50 42.5938C43.3047 42.5938 37.8571 37.0545 37.8571 30.25C37.8571 23.444 43.3063 17.9062 50 17.9062Z" fill="white"/>
</svg>
