<svg width="100" height="100" viewBox="0 0 100 100" fill="none" xmlns="http://www.w3.org/2000/svg">
<path d="M87.5 0H12.5C5.5957 0 0 6.39509 0 14.2857V85.7143C0 93.6049 5.5957 100 12.5 100H87.5C94.4043 100 100 93.6049 100 85.7143V14.2857C100 6.39509 94.3945 0 87.5 0ZM21.875 89.2857H12.5C10.777 89.2857 9.375 87.6835 9.375 85.7143V69.6429H21.875V89.2857ZM21.875 58.9286H9.375V41.0714H21.875V58.9286ZM21.875 30.3571H9.375V14.2857C9.375 12.3165 10.777 10.7143 12.5 10.7143H21.875V30.3571ZM68.75 89.2857H31.25V55.3571H68.75V89.2857ZM68.75 44.6429H31.25V10.7143H68.75V44.6429ZM90.625 85.7143C90.625 87.6835 89.223 89.2857 87.5 89.2857H78.125V69.6429H90.625V85.7143ZM90.625 58.9286H78.125V41.0714H90.625V58.9286ZM90.625 30.3571H78.125V10.7143H87.5C89.223 10.7143 90.625 12.3165 90.625 14.2857V30.3571Z" fill="white"/>
</svg>
