<svg width="150" height="150" viewBox="0 0 150 150" fill="none" xmlns="http://www.w3.org/2000/svg">
<g clip-path="url(#clip0_2756_44187)">
<path d="M74.9766 93.75C88.432 93.75 99.1406 80.1094 99.1406 63.2812C99.1406 46.4531 88.2328 32.8125 74.9766 32.8125C61.5211 32.8125 50.8125 46.4531 50.8125 63.2812C50.6016 80.0977 61.5234 93.75 74.9766 93.75ZM86.6953 103.125H63.3047C44.9063 103.125 30 120.615 30 142.178C30 146.514 32.9766 150 36.6562 150H113.344C117.023 150 120 146.514 120 142.178C120 120.615 105.094 103.125 86.6953 103.125ZM120 46.875C130.355 46.875 138.75 36.3809 138.75 23.4375C138.75 10.4941 130.359 0 120 0C109.645 0 101.25 10.4941 101.25 23.4375C101.25 36.3809 109.641 46.875 120 46.875ZM43.1016 63.2812C43.1016 61.6849 43.3318 60.167 43.4787 58.6201C40.9219 56.8652 38.1094 56.25 35.1328 56.25H20.6438C9.24375 56.25 0 68.4961 0 83.584C0 86.6016 1.84852 89.0625 4.12969 89.0625H50.8875C46.1016 82.0898 43.1016 73.1543 43.1016 63.2812ZM30 46.875C40.3547 46.875 48.75 36.3809 48.75 23.4375C48.75 10.4941 40.3594 0 30 0C19.6453 0 11.25 10.4941 11.25 23.4375C11.25 36.3809 19.6453 46.875 30 46.875ZM129.352 56.25H114.858C111.858 56.25 109.027 57.1397 106.453 58.6641C106.594 60.2051 106.828 61.6992 106.828 63.2812C106.828 73.1572 103.833 82.0928 99.0563 89.0625H145.861C148.148 89.0625 150 86.6016 150 83.584C150 68.4961 140.766 56.25 129.352 56.25Z" fill="white"/>
</g>
<defs>
<clipPath id="clip0_2756_44187">
<rect width="150" height="150" fill="white"/>
</clipPath>
</defs>
</svg>
