<svg width="100" height="100" viewBox="0 0 100 100" fill="none" xmlns="http://www.w3.org/2000/svg">
<path d="M99.9694 49.9023C99.9694 53.418 97.3651 56.1719 94.4136 56.1719H88.8579L88.9794 87.4414C88.9794 87.9883 88.9447 88.4961 88.8926 89.0234V92.1875C88.8926 96.5039 85.7848 100 81.9478 100H79.17C78.979 100 78.788 99.8242 78.597 99.9805C78.3539 99.8242 78.1109 100 77.8678 100H68.0584C64.2214 100 61.1136 96.5039 61.1136 92.1875V75C61.1136 71.543 58.6309 68.75 55.5579 68.75H44.4463C41.3732 68.75 38.8905 71.543 38.8905 75V92.1875C38.8905 96.5039 35.7827 100 31.9458 100H22.2405C21.9801 100 21.7197 99.9805 21.4592 99.9609C21.2509 99.9805 21.0425 100 20.8342 100H18.0563C14.2211 100 11.1116 96.5039 11.1116 92.1875V70.3125C11.1116 70.1367 11.1168 69.9414 11.1272 69.7656V56.1719H5.56447C2.43413 56.1719 0 53.418 0 49.9023C0 48.1445 0.521549 46.582 1.73792 45.2148L46.2519 1.56562C47.4672 0.195703 48.8562 0 50.0715 0C51.2868 0 52.6758 0.391406 53.7349 1.36992L98.0596 45.2148C99.4486 46.582 100.16 48.1445 99.9694 49.9023Z" fill="white"/>
</svg>
