<svg width="100" height="100" viewBox="0 0 100 100" fill="none" xmlns="http://www.w3.org/2000/svg">
<path d="M50 95.8445C48.0494 95.8435 46.1635 95.145 44.6828 93.8751L36.1746 86.6242C35.5289 86.0726 34.7253 85.7397 33.8787 85.673L22.7356 84.7851C20.7904 84.6367 18.9626 83.7967 17.5833 82.4172C16.2039 81.0377 15.3641 79.2098 15.216 77.2646L14.326 66.1207C14.2601 65.2747 13.9274 64.4715 13.3758 63.8267L6.12481 55.3171C4.85417 53.8368 4.15561 51.9505 4.15561 49.9997C4.15561 48.0488 4.85417 46.1625 6.12481 44.6822L13.3758 36.1734C13.9278 35.5286 14.2608 34.7253 14.327 33.8791L15.2148 22.7355C15.3635 20.7904 16.2035 18.9628 17.583 17.5835C18.9625 16.2042 20.7902 15.3643 22.7354 15.216L33.8793 14.3269C34.7257 14.2612 35.5293 13.9283 36.1742 13.3763L44.6826 6.12593C46.1629 4.85545 48.0491 4.15698 49.9998 4.15698C51.9505 4.15698 53.8367 4.85545 55.317 6.12593V6.12593L63.8254 13.3769C64.4705 13.9286 65.2741 14.2613 66.1203 14.3271L77.2645 15.2148C79.2095 15.3631 81.0371 16.203 82.4164 17.5824C83.7958 18.9617 84.6356 20.7893 84.784 22.7343L85.674 33.8783C85.7395 34.724 86.0718 35.527 86.6231 36.1716L93.875 44.681C95.1456 46.1613 95.8442 48.0476 95.8442 49.9985C95.8442 51.9493 95.1456 53.8357 93.875 55.316L86.624 63.8244C86.0725 64.47 85.7395 65.2737 85.6729 66.1203L84.7852 77.2644C84.6368 79.2096 83.7968 81.0373 82.4172 82.4167C81.0377 83.796 79.2099 84.6358 77.2647 84.7839L66.1207 85.674C65.2747 85.7398 64.4715 86.0725 63.8268 86.6242L55.3174 93.8751C53.8364 95.1445 51.9506 95.8429 50 95.8445V95.8445ZM50 8.32827C49.0406 8.32906 48.1131 8.67255 47.3846 9.29683L38.8764 16.547C37.5655 17.6695 35.9319 18.3466 34.2113 18.4806L23.0664 19.3689C22.1101 19.4421 21.2115 19.8551 20.5332 20.5333C19.855 21.2115 19.4418 22.11 19.3686 23.0664L18.4805 34.2111C18.3462 35.9318 17.6691 37.5654 16.5469 38.8767L9.29688 47.3851C8.67167 48.113 8.32792 49.0407 8.32792 50.0002C8.32792 50.9598 8.67167 51.8875 9.29688 52.6154L16.5479 61.1238C17.6695 62.4346 18.346 64.0678 18.4797 65.7879L19.3695 76.9336C19.4424 77.8899 19.8552 78.7886 20.5333 79.4669C21.2115 80.1452 22.1101 80.5583 23.0664 80.6314L34.2104 81.5195C35.9312 81.6538 37.565 82.3309 38.8766 83.4531L47.3838 90.7031C48.1118 91.3282 49.0396 91.672 49.9991 91.672C50.9587 91.672 51.8865 91.3282 52.6145 90.7031L61.1229 83.4521C62.4337 82.3304 64.0669 81.654 65.7869 81.5203L76.932 80.6302C77.8887 80.5578 78.7877 80.1451 79.4663 79.467C80.145 78.7889 80.5583 77.8901 80.6315 76.9336L81.5195 65.7896C81.6539 64.0687 82.3309 62.4349 83.4531 61.1234L90.7031 52.6162C91.3283 51.8883 91.6721 50.9605 91.6721 50.001C91.6721 49.0415 91.3283 48.1138 90.7031 47.3859L83.4522 38.8771C82.3304 37.5661 81.6539 35.9327 81.5203 34.2125L80.6303 23.0679C80.5577 22.1114 80.145 21.2124 79.4669 20.5339C78.7888 19.8553 77.8901 19.442 76.9336 19.3689L65.7897 18.4798C64.0693 18.3461 62.4358 17.6695 61.1246 16.5476L52.6154 9.29683C51.8868 8.67272 50.9594 8.32925 50 8.32827V8.32827Z" fill="white"/>
<path d="M35.4166 66.6666C35.0046 66.6665 34.6019 66.5443 34.2594 66.3154C33.9169 66.0864 33.6499 65.7611 33.4923 65.3805C33.3346 64.9999 33.2933 64.5811 33.3737 64.177C33.454 63.7729 33.6523 63.4017 33.9436 63.1104L63.1104 33.9438C63.303 33.7467 63.5328 33.5897 63.7865 33.4821C64.0402 33.3744 64.3127 33.3182 64.5883 33.3166C64.8639 33.315 65.137 33.3681 65.3919 33.4728C65.6469 33.5775 65.8785 33.7318 66.0733 33.9267C66.2682 34.1216 66.4225 34.3532 66.5272 34.6081C66.6319 34.863 66.685 35.1362 66.6834 35.4117C66.6819 35.6873 66.6256 35.9599 66.5179 36.2135C66.4103 36.4672 66.2534 36.697 66.0563 36.8897L36.8897 66.0563C36.6964 66.25 36.4668 66.4037 36.214 66.5085C35.9613 66.6132 35.6902 66.667 35.4166 66.6666V66.6666Z" fill="white"/>
<path d="M60.4166 54.1666C59.1805 54.1666 57.9721 54.5332 56.9443 55.2199C55.9165 55.9067 55.1154 56.8828 54.6424 58.0249C54.1693 59.1669 54.0455 60.4236 54.2867 61.6359C54.5278 62.8483 55.1231 63.962 55.9972 64.836C56.8713 65.7101 57.9849 66.3054 59.1973 66.5465C60.4097 66.7877 61.6663 66.6639 62.8084 66.1909C63.9504 65.7178 64.9265 64.9167 65.6133 63.8889C66.3 62.8611 66.6666 61.6528 66.6666 60.4166C66.6666 58.759 66.0081 57.1693 64.836 55.9972C63.6639 54.8251 62.0742 54.1666 60.4166 54.1666ZM60.4166 62.5C60.0045 62.5 59.6017 62.3778 59.2591 62.1489C58.9165 61.92 58.6495 61.5946 58.4918 61.2139C58.3341 60.8332 58.2928 60.4143 58.3732 60.0102C58.4536 59.606 58.652 59.2348 58.9434 58.9434C59.2348 58.6521 59.606 58.4536 60.0101 58.3733C60.4143 58.2929 60.8332 58.3341 61.2139 58.4918C61.5946 58.6495 61.92 58.9165 62.1489 59.2592C62.3778 59.6018 62.5 60.0046 62.5 60.4166C62.5 60.9692 62.2805 61.4991 61.8898 61.8898C61.4991 62.2805 60.9692 62.5 60.4166 62.5V62.5Z" fill="white"/>
<path d="M39.5834 33.3334C38.3473 33.3334 37.1389 33.6999 36.1111 34.3867C35.0833 35.0734 34.2822 36.0496 33.8092 37.1916C33.3361 38.3336 33.2123 39.5903 33.4535 40.8027C33.6947 42.0151 34.2899 43.1287 35.164 44.0028C36.0381 44.8769 37.1517 45.4721 38.3641 45.7133C39.5765 45.9544 40.8331 45.8307 41.9752 45.3576C43.1172 44.8846 44.0933 44.0835 44.7801 43.0557C45.4669 42.0279 45.8334 40.8195 45.8334 39.5834C45.8334 37.9258 45.1749 36.3361 44.0028 35.164C42.8307 33.9919 41.241 33.3334 39.5834 33.3334ZM39.5834 41.6668C39.1714 41.6668 38.7685 41.5446 38.4259 41.3157C38.0833 41.0867 37.8163 40.7613 37.6586 40.3807C37.5009 40 37.4597 39.5811 37.54 39.1769C37.6204 38.7728 37.8189 38.4016 38.1102 38.1102C38.4016 37.8188 38.7728 37.6204 39.177 37.54C39.5811 37.4596 40 37.5009 40.3807 37.6586C40.7614 37.8163 41.0868 38.0833 41.3157 38.4259C41.5446 38.7685 41.6668 39.1713 41.6668 39.5834C41.6668 40.1359 41.4472 40.6658 41.0565 41.0564C40.6658 41.4471 40.1359 41.6666 39.5834 41.6666V41.6668Z" fill="white"/>
</svg>
