<svg width="100" height="100" viewBox="0 0 100 100" fill="none" xmlns="http://www.w3.org/2000/svg">
<path d="M57.3929 57.5938H42.6071C27.6366 57.5938 15.5 70.0602 15.5 85.4375C15.5 88.233 17.7071 90.5 20.4286 90.5H79.5714C82.2929 90.5 84.5 88.233 84.5 85.4375C84.5 70.0602 72.3634 57.5938 57.3929 57.5938ZM23.0453 82.9063C24.2621 72.9236 32.5652 65.1875 42.6071 65.1875H57.3929C67.4287 65.1875 75.7364 72.9315 76.9531 82.9063H23.0453ZM50 50C60.8875 50 69.7143 40.9334 69.7143 29.75C69.7143 18.5666 60.8875 9.5 50 9.5C39.1125 9.5 30.2857 18.5666 30.2857 29.75C30.2857 40.935 39.1109 50 50 50ZM50 17.0938C56.7937 17.0938 62.3214 22.7717 62.3214 29.75C62.3214 36.7283 56.7937 42.4063 50 42.4063C43.2063 42.4063 37.6786 36.7268 37.6786 29.75C37.6786 22.7717 43.2078 17.0938 50 17.0938Z" fill="white"/>
<path d="M96.2463 65.077L94.6238 62.2667C93.7281 60.7139 91.7436 60.1833 90.1908 61.079L89.3373 61.5722C86.0921 63.4447 82.0357 61.1033 82.0357 57.3567V56.3702C82.0357 54.5772 80.5834 53.125 78.7905 53.125H75.5453C73.7523 53.125 72.3001 54.5772 72.3001 56.3702V57.3567C72.3001 61.1033 68.2436 63.4463 64.9984 61.5722L64.1449 61.079C62.5921 60.1833 60.6076 60.7139 59.712 62.2667L58.0894 65.077C57.1937 66.6299 57.7243 68.6143 59.2771 69.51L60.1306 70.0032C63.3758 71.8773 63.3758 76.5602 60.1306 78.4343L59.2771 78.9275C57.7243 79.8232 57.1937 81.8076 58.0894 83.3605L59.712 86.1708C60.6076 87.7236 62.5921 88.2542 64.1449 87.3585L64.9984 86.8653C68.2436 84.9912 72.3001 87.3342 72.3001 91.0808V92.0673C72.3001 93.8603 73.7523 95.3125 75.5453 95.3125H78.7905C80.5834 95.3125 82.0357 93.8603 82.0357 92.0673V91.0808C82.0357 87.3342 86.0921 84.9912 89.3373 86.8653L90.1908 87.3585C91.7436 88.2542 93.7281 87.7236 94.6238 86.1708L96.2463 83.3605C97.142 81.8076 96.6114 79.8232 95.0586 78.9275L94.2051 78.4343C90.9599 76.5602 90.9599 71.8773 94.2051 70.0032L95.0586 69.51C96.6114 68.6143 97.1436 66.6299 96.2463 65.077Z" fill="#CCCCCC" stroke="white" stroke-width="1.5" stroke-miterlimit="10" stroke-linecap="round" stroke-linejoin="round"/>
<path d="M77.1679 80.7092C80.7524 80.7092 83.6582 77.8033 83.6582 74.2188C83.6582 70.6342 80.7524 67.7284 77.1679 67.7284C73.5833 67.7284 70.6775 70.6342 70.6775 74.2188C70.6775 77.8033 73.5833 80.7092 77.1679 80.7092Z" stroke="white" stroke-miterlimit="10" stroke-linecap="round" stroke-linejoin="round"/>
</svg>
