<svg width="150" height="150" viewBox="0 0 150 150" fill="none" xmlns="http://www.w3.org/2000/svg">
<rect width="150" height="150" rx="75" fill="#FCDDCC"/>
<path d="M83.3571 83.8125H66.6429C49.7196 83.8125 36 98.2797 36 116.125C36 119.369 38.495 122 41.5714 122H108.429C111.505 122 114 119.369 114 116.125C114 98.2797 100.28 83.8125 83.3571 83.8125ZM44.5295 113.188C45.905 101.603 55.2911 92.625 66.6429 92.625H83.3571C94.702 92.625 104.093 101.612 105.469 113.188H44.5295ZM75 75C87.3076 75 97.2857 64.4782 97.2857 51.5C97.2857 38.5218 87.3076 28 75 28C62.6924 28 52.7143 38.5218 52.7143 51.5C52.7143 64.4801 62.6906 75 75 75ZM75 36.8125C82.6799 36.8125 88.9286 43.4017 88.9286 51.5C88.9286 59.5983 82.6799 66.1875 75 66.1875C67.3201 66.1875 61.0714 59.5965 61.0714 51.5C61.0714 43.4017 67.3219 36.8125 75 36.8125Z" fill="#CF0A0A"/>
</svg>
