<svg width="200" height="200" viewBox="0 0 200 200" fill="none" xmlns="http://www.w3.org/2000/svg">
<g clip-path="url(#clip0_1923_34283)">
<path d="M187.617 125.118L149.258 108.672C140.895 105.047 131.039 107.458 125.352 114.512L114.633 127.598C97.1406 117.54 82.4883 102.891 72.4453 85.7623L85.5508 75.0279C92.5469 69.317 94.9609 59.5201 91.418 51.1802L74.8828 12.3169C70.9141 3.25445 61.0781 -1.69086 51.4961 0.52398L15.8516 8.75054C6.52344 10.8834 0 19.0748 0 28.6685C0 123.161 76.8359 199.997 171.328 199.997C180.922 199.997 189.113 193.477 190.898 184.165L199.125 148.485C201.719 138.868 196.719 129.024 187.617 125.118ZM181.211 144.258L172.973 179.965C172.79 180.395 172.149 181.247 171.325 181.247C87.184 181.247 18.7465 112.81 18.7465 28.6689C18.7465 27.8509 19.2531 27.2103 20.0527 27.0271L55.7324 18.7927C55.8545 18.7622 55.9827 18.75 56.1047 18.75C56.7821 18.75 57.4168 19.159 57.6856 19.7691L74.1465 58.1793C74.4395 58.8691 74.2442 59.6746 73.6582 60.1566L54.6094 75.4302C51.2402 78.1888 50.2148 82.9068 52.1313 86.813C65.0258 113.075 86.6078 134.665 112.873 147.555C116.428 149.472 121.502 148.446 124.264 145.077L139.893 125.987C140.326 125.438 141.138 125.23 141.816 125.548L180.198 141.989C180.938 142.657 181.367 143.477 181.211 144.258Z" fill="white"/>
</g>
<defs>
<clipPath id="clip0_1923_34283">
<rect width="200" height="200" fill="white"/>
</clipPath>
</defs>
</svg>
