<svg width="100" height="100" viewBox="0 0 100 100" fill="none" xmlns="http://www.w3.org/2000/svg">
<path d="M91.4793 100L57.0653 65.5821C41.7562 76.4654 20.6608 73.8033 8.53576 59.458C-3.58931 45.1126 -2.699 23.8699 10.5839 10.5893C23.8633 -2.69709 45.1094 -3.5912 59.4583 8.53249C73.8071 20.6562 76.4709 41.7524 65.586 57.0619L100 91.4798L91.4853 99.994L91.4793 100ZM36.1279 12.0464C24.709 12.0438 14.8574 20.0589 12.5378 31.239C10.2181 42.4192 16.0679 53.6916 26.5455 58.2315C37.023 62.7713 49.2486 59.3309 55.8203 49.9932C62.392 40.6554 61.5037 27.9868 53.6932 19.6574L57.3363 23.2702L53.2295 19.1757L53.1573 19.1034C48.6518 14.5704 42.5193 12.0291 36.1279 12.0464Z" fill="#CF0A0A"/>
</svg>
