<svg width="100" height="100" viewBox="0 0 100 100" fill="none" xmlns="http://www.w3.org/2000/svg">
<path d="M54.6875 48.5742L66.2305 66.1523C67.832 68.3008 67.2461 71.2109 65.0977 72.4805C62.9492 74.082 60.0391 73.4961 58.5938 71.3477L46.0938 52.5977C45.5859 51.8359 45.3125 50.918 45.3125 50V23.4375C45.3125 20.8398 47.4023 18.75 50 18.75C52.5977 18.75 54.6875 20.8398 54.6875 23.4375V48.5742ZM100 50C100 77.6172 77.6172 100 50 100C22.3828 100 0 77.6172 0 50C0 22.3828 22.3828 0 50 0C77.6172 0 100 22.3828 100 50ZM50 9.375C27.5586 9.375 9.375 27.5586 9.375 50C9.375 72.4414 27.5586 90.625 50 90.625C72.4414 90.625 90.625 72.4414 90.625 50C90.625 27.5586 72.4414 9.375 50 9.375Z" fill="#1A1A1A"/>
</svg>
