<svg width="150" height="150" viewBox="0 0 150 150" fill="none" xmlns="http://www.w3.org/2000/svg">
<rect width="150" height="150" rx="75" fill="#FCDDCC"/>
<path d="M92.6383 66.2858C92.0908 66.597 91.472 66.7297 90.8565 66.6678C90.117 66.6722 89.3806 66.5631 88.6692 66.3437C88.0577 66.1595 87.4616 65.9194 86.8875 65.6259L85.97 68.2887C86.4393 68.5286 86.9201 68.7412 87.4103 68.9254C88.2289 69.2168 89.0789 69.3919 89.939 69.4464V72.2018H92.6276V69.3769C93.2409 69.2827 93.8357 69.0794 94.3881 68.7752C94.8305 68.5267 95.2253 68.1889 95.5511 67.7799C95.8412 67.4111 96.059 66.982 96.1912 66.5187C96.318 66.0727 96.3827 65.6086 96.3833 65.1418C96.3957 64.5285 96.2827 63.9199 96.0525 63.3596C95.8334 62.8529 95.5212 62.4 95.135 62.0289C94.7145 61.6298 94.2483 61.2911 93.748 61.0213C93.1838 60.713 92.603 60.4418 92.0089 60.2091C91.5961 60.0542 91.244 59.9111 90.9525 59.7797C90.6966 59.6682 90.4503 59.5324 90.2164 59.374C90.0369 59.2571 89.8867 59.0941 89.7789 58.8994C89.6823 58.7039 89.6345 58.4844 89.6403 58.2627C89.6365 58.0732 89.6753 57.8856 89.7534 57.7162C89.8314 57.5467 89.9464 57.4004 90.0884 57.2901C90.5313 57.0026 91.0463 56.873 91.5606 56.9197C92.2174 56.9167 92.8724 56.9943 93.5131 57.1511C94.0711 57.2848 94.6173 57.4707 95.1456 57.7069L95.8072 54.9284C95.3959 54.7378 94.9713 54.5829 94.5375 54.4653C93.9105 54.2938 93.2718 54.1776 92.6276 54.1179V51.7098H89.939V54.2106C89.3728 54.3122 88.8253 54.5115 88.3173 54.801C87.8907 55.0456 87.5134 55.3801 87.2076 55.7851C86.9252 56.1666 86.7116 56.6026 86.5782 57.0701C86.4422 57.5462 86.3739 58.0421 86.3754 58.5405C86.3551 59.0915 86.4535 59.64 86.6628 60.1424C86.8721 60.6449 87.1866 61.0874 87.5812 61.4348C87.9521 61.7647 88.3609 62.041 88.7974 62.2568C89.2456 62.4807 89.7044 62.6853 90.1737 62.8704C90.6573 63.0557 91.084 63.2294 91.454 63.3913C91.7735 63.526 92.0807 63.6927 92.3717 63.8892C92.5903 64.0353 92.7791 64.2283 92.9265 64.4565C93.0586 64.6808 93.1255 64.943 93.1185 65.2091C93.1271 65.4177 93.0878 65.6254 93.0039 65.8134C92.9201 66.0013 92.7945 66.1637 92.6383 66.2858V66.2858Z" fill="#CF0A0A"/>
<path d="M79.6227 80.6035C82.8936 82.8443 86.6622 84.0829 90.5292 84.1881C90.7443 84.1946 90.9602 84.1979 91.1768 84.1979C91.3935 84.1979 91.6091 84.1946 91.8235 84.1881C95.6907 84.083 99.4595 82.8444 102.731 80.6035C105.544 78.6816 107.88 76.04 109.534 72.9104C111.188 69.7807 112.108 66.2586 112.216 62.6529C112.358 58.961 111.675 55.2866 110.225 51.9431C108.776 48.5996 106.602 45.6861 103.89 43.4511L99.9834 40.2368L102.459 28.8884C102.522 28.6003 102.524 28.3005 102.465 28.0115C102.405 27.7225 102.287 27.4517 102.118 27.2195C101.948 26.9873 101.733 26.7997 101.487 26.6707C101.242 26.5417 100.972 26.4746 100.699 26.4746H81.6538C81.3809 26.4746 81.1116 26.5417 80.8661 26.6707C80.6205 26.7997 80.405 26.9873 80.2358 27.2195C80.0665 27.4517 79.9479 27.7225 79.8888 28.0115C79.8296 28.3005 79.8315 28.6003 79.8944 28.8884L82.3699 40.2369L78.4628 43.4511C75.7511 45.686 73.5778 48.5995 72.1283 51.943C70.6787 55.2865 69.9959 58.9608 70.138 62.6526C70.2451 66.2583 71.1658 69.7805 72.8194 72.9102C74.4731 76.0399 76.8091 78.6816 79.6227 80.6035V80.6035ZM80.6473 46.5779L83.8696 43.9272C84.1121 44.0558 84.3782 44.1234 84.6481 44.1251H88.3414C88.8209 44.1251 89.2808 43.9184 89.6198 43.5504C89.9589 43.1825 90.1494 42.6835 90.1494 42.1631C90.1494 41.6428 89.9589 41.1438 89.6198 40.7758C89.2808 40.4079 88.8209 40.2012 88.3414 40.2012H86.078L83.9397 30.3985H98.4136L96.2752 40.2012H94.6492C94.1696 40.2012 93.7098 40.4079 93.3707 40.7758C93.0316 41.1438 92.8411 41.6428 92.8411 42.1631C92.8411 42.6835 93.0316 43.1825 93.3707 43.5504C93.7098 43.9184 94.1696 44.1251 94.6492 44.1251H97.7052C97.9751 44.1234 98.2413 44.0558 98.4838 43.9271L101.706 46.5779C103.953 48.4304 105.753 50.845 106.954 53.6159C108.155 56.3867 108.721 59.4316 108.602 62.4909C108.516 65.4631 107.758 68.3668 106.396 70.9474C105.034 73.5279 103.11 75.7064 100.791 77.2919C98.076 79.1651 94.9392 80.1937 91.7225 80.2658C91.3601 80.2769 90.9942 80.2769 90.6302 80.2658C87.4137 80.1937 84.2771 79.165 81.5622 77.2919C79.2438 75.7063 77.3192 73.5277 75.9573 70.9472C74.5954 68.3666 73.8378 65.4629 73.7509 62.4906C73.6327 59.4314 74.1982 56.3865 75.3991 53.6157C76.5999 50.8449 78.4005 48.4303 80.6473 46.5779V46.5779Z" fill="#CF0A0A"/>
<path d="M119.076 91.6684C118.478 90.8619 117.655 90.2883 116.73 90.034C115.805 89.7797 114.829 89.8586 113.949 90.2588L86.6415 102.697L84.2077 103.46C83.3428 103.732 82.4523 103.897 81.5532 103.951C79.6021 104.065 76.7601 104.126 76.2672 104.162H60.2296C59.968 104.162 59.7145 104.065 59.5107 103.887C59.3086 103.754 59.1409 103.568 59.0237 103.346C58.9064 103.124 58.8434 102.873 58.8407 102.616C58.8525 102.201 59.0157 101.808 59.2944 101.524C59.5731 101.239 59.9445 101.086 60.3271 101.098H78.5007C79.6182 101.099 80.697 100.654 81.5326 99.849C82.3682 99.044 82.9026 97.9342 83.0345 96.7301C83.0573 96.5352 83.0684 96.3388 83.0679 96.1423C83.0682 94.994 82.701 93.8812 82.0291 92.9941C81.3571 92.1069 80.4221 91.5005 79.3839 91.2784C69.2381 89.1139 59.195 86.512 48.777 87.2419C48.3714 87.2697 44.7156 87.4313 42.7799 87.6235V116.899L42.88 119.342C46.4976 119.82 70.924 123.063 71.3237 123.14C75.1983 123.887 79.0713 123.687 82.7637 121.299C82.7811 121.286 82.7991 121.275 82.8176 121.265C82.8176 121.265 107.321 106.26 118.057 98.6522C118.571 98.2879 119.009 97.8108 119.343 97.2516C119.676 96.6925 119.898 96.0636 119.994 95.4056C120.09 94.7477 120.058 94.0752 119.9 93.4315C119.742 92.7878 119.461 92.1872 119.076 91.6684Z" fill="#CF0A0A"/>
<path d="M39.7985 84.2087H29.9512V119.364H39.7985V84.2087Z" fill="#CF0A0A"/>
</svg>
