<svg width="100" height="100" viewBox="0 0 100 100" fill="none" xmlns="http://www.w3.org/2000/svg">
<path fill-rule="evenodd" clip-rule="evenodd" d="M80.625 41.8333C77.7917 27.4583 65.1667 16.6666 50 16.6666C37.9583 16.6666 27.5 23.5 22.2917 33.5C9.75 34.8333 0 45.4583 0 58.3333C0 72.125 11.2083 83.3333 25 83.3333H79.1667C90.6667 83.3333 100 74 100 62.5C100 51.5 91.4583 42.5833 80.625 41.8333ZM79.1667 75H25C15.7917 75 8.33333 67.5416 8.33333 58.3333C8.33333 49.7916 14.7083 42.6666 23.1667 41.7916L27.625 41.3333L29.7083 37.375C33.6667 29.75 41.4167 25 50 25C60.9167 25 70.3333 32.75 72.4583 43.4583L73.7083 49.7083L80.0833 50.1666C86.5833 50.5833 91.6667 56.0416 91.6667 62.5C91.6667 69.375 86.0417 75 79.1667 75ZM33.3333 54.1666H43.9583V66.6666H56.0417V54.1666H66.6667L50 37.5L33.3333 54.1666Z" fill="white"/>
</svg>
